<svg width="224" height="60" viewBox="0 0 224 60" version="1.1" xmlns="http://www.w3.org/2000/svg" xmlns:xlink="http://www.w3.org/1999/xlink">
<title>legmenobblogo</title>
<desc>Created using Figma</desc>
<g id="Canvas" transform="translate(-1431 -422)">
<g id="legmenobblogo">
<g id="Vector">
<use xlink:href="#path0_fill" transform="matrix(1 5.55112e-17 -5.55112e-17 1 1510.95 422)" fill="#F8485E"/>
</g>
<g id="Vector">
<use xlink:href="#path1_fill" transform="matrix(1 5.55112e-17 -5.55112e-17 1 1594.56 435.963)" fill="#F8485E"/>
</g>
<g id="Vector">
<use xlink:href="#path2_fill" transform="matrix(1 5.55112e-17 -5.55112e-17 1 1630.1 435.836)" fill="#F8485E"/>
</g>
<g id="Vector">
<use xlink:href="#path3_fill" transform="matrix(1 5.55112e-17 -5.55112e-17 1 1538.82 435.822)" fill="#F8485E"/>
</g>
<g id="Vector">
<use xlink:href="#path4_fill" transform="matrix(1 5.55112e-17 -5.55112e-17 1 1602.24 435.851)" fill="#F8485E"/>
</g>
<g id="Vector">
<use xlink:href="#path5_fill" transform="matrix(1 5.55112e-17 -5.55112e-17 1 1605.88 460.729)" fill="#F8485E"/>
</g>
<g id="Vector">
<use xlink:href="#path6_fill" transform="matrix(1 5.55112e-17 -5.55112e-17 1 1458.86 435.868)" fill="#3D3D3D"/>
</g>
<g id="Vector">
<use xlink:href="#path7_fill" transform="matrix(1 5.55112e-17 -5.55112e-17 1 1483.08 422)" fill="#3D3D3D"/>
</g>
<g id="Vector">
<use xlink:href="#path8_fill" transform="matrix(1 5.55112e-17 -5.55112e-17 1 1431 435.868)" fill="#3D3D3D"/>
</g>
<g id="Vector">
<use xlink:href="#path9_fill" transform="matrix(1 5.55112e-17 -5.55112e-17 1 1594.44 422)" fill="#F8485E"/>
</g>
<g id="Vector">
<use xlink:href="#path10_fill" transform="matrix(1 5.55112e-17 -5.55112e-17 1 1566.7 435.869)" fill="#F8485E"/>
</g>
</g>
</g>
<defs>
<path id="path0_fill" d="M 20.1732 0L 20.1732 16.5764L 20.1589 16.564C 18.3521 15.1371 16.1849 14.2391 13.8982 13.9699C 11.6114 13.7006 9.29481 14.0707 7.20585 15.0389C 5.11689 16.0071 3.33744 17.5355 2.06533 19.4543C 0.793213 21.373 0.0782764 23.6068 1.30259e-06 25.9074L 1.30259e-06 26.7555C 0.0804328 29.0541 0.796388 31.2855 2.06841 33.202C 3.34042 35.1184 5.11875 36.645 7.20599 37.6123C 9.29324 38.5796 11.6078 38.9497 13.8927 38.6817C 16.1776 38.4136 18.3435 37.5178 20.1501 36.0937L 20.1732 36.0937C 21.631 34.9417 22.8123 33.4782 23.6306 31.8103C 24.4489 30.1425 24.8834 28.3126 24.9021 26.455L 24.9021 23.3684L 24.9021 13.8685L 24.927 13.8685L 24.927 0L 20.1732 0ZM 12.4386 34.0347C 10.9236 34.0349 9.44196 33.5892 8.17857 32.7532C 6.91519 31.9172 5.92591 30.7278 5.33409 29.3335C 4.74227 27.9392 4.57409 26.4015 4.85053 24.9123C 5.12697 23.423 5.83579 22.0481 6.88861 20.9589C 7.94143 19.8697 9.29167 19.1144 10.771 18.7872C 12.2503 18.4601 13.7932 18.5755 15.2073 19.1191C 16.6214 19.6627 17.8442 20.6105 18.7232 21.8442C 19.6021 23.0779 20.0984 24.543 20.1501 26.0568C 20.1501 26.1445 20.1501 26.2328 20.1501 26.3217C 20.1501 26.4106 20.1501 26.4989 20.1501 26.5866C 20.0809 28.5852 19.2382 30.4789 17.7996 31.8683C 16.361 33.2578 14.4389 34.0345 12.4386 34.0347Z"/>
<path id="path1_fill" d="M 4.71117 0L -4.77616e-06 0L -4.77616e-06 24.8157L 4.71117 24.8157L 4.71117 0Z"/>
<path id="path2_fill" d="M 23.0472 5.92668C 21.6456 3.64798 19.5469 1.88138 17.0623 0.888699C 14.5776 -0.103986 11.8391 -0.269928 9.25273 0.415468C 6.66632 1.10086 4.36961 2.60112 2.703 4.69389C 1.03639 6.78666 0.0885601 9.36057 -1.73679e-06 12.0341L -1.73679e-06 12.9232C 0.0637149 14.7324 0.521062 16.506 1.34021 18.1206C 2.15936 19.7351 3.32064 21.1518 4.74318 22.2719L 4.74318 12.8751C 4.73607 12.7412 4.7325 12.6061 4.7325 12.4698C 4.7325 12.3334 4.73607 12.1983 4.74318 12.0644C 4.80906 10.7715 5.20123 9.51636 5.88317 8.41589C 6.57515 7.29727 7.54158 6.37399 8.69075 5.73368C 9.83991 5.09337 11.1337 4.75726 12.4493 4.75726C 13.7649 4.75726 15.0587 5.09337 16.2078 5.73368C 17.357 6.37399 18.3234 7.29727 19.0154 8.41589C 19.721 9.55605 20.1153 10.8612 20.1589 12.2013C 20.1589 12.289 20.1589 12.3773 20.1589 12.4662C 20.1589 12.5551 20.1589 12.6434 20.1589 12.7311L 20.1589 24.9247L 24.9021 24.9247L 24.9021 12.34C 24.8824 10.0728 24.2408 7.85448 23.0472 5.92668Z"/>
<path id="path3_fill" d="M 24.6727 10.1155C 24.0984 7.10376 22.4324 4.40992 19.9941 2.55042C 17.5558 0.690926 14.5168 -0.203379 11.4596 0.0389618C 8.40247 0.281303 5.54236 1.64324 3.42763 3.86366C 1.31289 6.08408 0.0923596 9.00673 3.47357e-06 12.0713L 3.47357e-06 12.9407C 0.0823208 15.3653 0.871575 17.7129 2.27072 19.6949C 3.66987 21.677 5.6179 23.207 7.87529 24.0969C 10.1327 24.9869 12.601 25.1978 14.9767 24.7039C 17.3524 24.21 19.532 23.0328 21.2474 21.317L 17.8985 17.9654C 16.9646 18.8971 15.8073 19.5739 14.5372 19.931C 13.2671 20.2882 11.9266 20.3138 10.6437 20.0054C 9.36089 19.6971 8.17856 19.065 7.20969 18.1697C 6.24081 17.2743 5.51773 16.1456 5.10954 14.8912L 24.6727 14.8912C 24.817 14.147 24.8932 13.3912 24.9004 12.6331L 24.9004 12.3753C 24.8933 11.6167 24.8171 10.8603 24.6727 10.1155ZM 5.10954 10.1155C 5.61459 8.56773 6.59633 7.21932 7.91433 6.26317C 9.23233 5.30702 10.8191 4.79211 12.4475 4.79211C 14.076 4.79211 15.6627 5.30702 16.9807 6.26317C 18.2987 7.21932 19.2804 8.56773 19.7855 10.1155L 5.10954 10.1155Z"/>
<path id="path4_fill" d="M 23.0436 5.90292C 21.9265 4.09803 20.3667 2.6084 18.5121 1.57533C 16.6575 0.542255 14.5696 -5.27999e-07 12.4466 -5.27999e-07C 10.3236 -5.27999e-07 8.23575 0.542255 6.38116 1.57533C 4.52658 2.6084 2.96673 4.09803 1.8496 5.90292C 0.880584 7.46804 0.273006 9.22956 0.0711353 11.0592C 0.0355659 11.378 0.0118595 11.7004 3.03938e-06 12.0264L 3.03938e-06 12.8958C 0.0405675 16.1967 1.39108 19.3463 3.75446 21.6518C 4.92468 22.7933 6.30835 23.6932 7.82645 24.3001C 9.34455 24.9071 10.9674 25.2091 12.6022 25.189C 14.2371 25.1689 15.852 24.8271 17.3547 24.1831C 18.8575 23.5391 20.2186 22.6054 21.3604 21.4355C 22.5022 20.2656 23.4024 18.8823 24.0095 17.3646C 24.6165 15.8469 24.9186 14.2245 24.8986 12.59L 24.8986 12.3322C 24.8817 10.0596 24.24 7.83539 23.0436 5.90292ZM 12.444 20.159C 10.4679 20.1595 8.56701 19.4016 7.13346 18.0419C 5.69992 16.6822 4.84305 14.8242 4.73962 12.8514C 4.7325 12.7174 4.72895 12.5823 4.72895 12.446C 4.72895 12.3097 4.7325 12.1746 4.73962 12.0406C 4.80549 10.7478 5.19768 9.4926 5.87962 8.39213C 6.5716 7.27351 7.53803 6.35023 8.68719 5.70992C 9.83636 5.06961 11.1301 4.7335 12.4457 4.7335C 13.7613 4.7335 15.0551 5.06961 16.2043 5.70992C 17.3534 6.35023 18.3199 7.27351 19.0118 8.39213C 19.7175 9.53229 20.1118 10.8375 20.1554 12.1775C 20.1554 12.2652 20.1554 12.3535 20.1554 12.4424C 20.1554 12.5313 20.1554 12.6197 20.1554 12.7074C 20.0867 14.7061 19.2441 16.6 17.8054 17.9896C 16.3667 19.3792 14.4444 20.1557 12.444 20.1555L 12.444 20.159Z"/>
<path id="path5_fill" d="M 21.2527 8.81183C 21.2553 11.2746 20.5271 13.6828 19.1601 15.7317C 17.7931 17.7805 15.8489 19.3778 13.5734 20.3214C 11.298 21.2651 8.7937 21.5126 6.37749 21.0327C 3.96129 20.5528 1.74182 19.367 3.03938e-06 17.6254L 1.09376 16.5302L 3.34885 14.2721C 4.41249 15.3335 5.76304 16.0612 7.23462 16.3658C 8.7062 16.6705 10.2348 16.5388 11.6325 15.987C 13.0303 15.4352 14.2365 14.4873 15.1028 13.2597C 15.9692 12.0321 16.4582 10.5783 16.5095 9.07675C 16.5095 8.98904 16.5095 8.90073 16.5095 8.81183C 16.5095 8.72293 16.5095 8.63462 16.5095 8.54691C 16.4435 6.59145 15.6353 4.73447 14.2491 3.35333L 16.5095 1.08992L 17.598 1.30226e-06C 18.7579 1.15559 19.6779 2.52899 20.3051 4.04123C 20.9323 5.55347 21.2543 7.17474 21.2527 8.81183Z"/>
<path id="path6_fill" d="M 21.2474 21.2713C 19.532 22.9871 17.3524 24.1643 14.9767 24.6582C 12.601 25.1521 10.1327 24.9412 7.87529 24.0512C 5.6179 23.1613 3.66987 21.6313 2.27072 19.6492C 0.871576 17.6672 0.082316 15.3196 -1.30259e-06 12.895L -1.30259e-06 12.0256C 0.0819855 9.60092 0.871007 7.25305 2.27002 5.27075C 3.66904 3.28844 5.61706 1.75813 7.87451 0.868001C 10.132 -0.0221267 12.6004 -0.233256 14.9763 0.260579C 17.3522 0.754415 19.5319 1.93168 21.2474 3.6476L 17.8985 7.00093C 16.819 5.92354 15.4443 5.19023 13.9481 4.89367C 12.4519 4.59711 10.9014 4.75061 9.49237 5.33477C 8.0834 5.91893 6.87924 6.90753 6.03208 8.17565C 5.18491 9.44377 4.73276 10.9345 4.73276 12.4594C 4.73276 13.9844 5.18491 15.4751 6.03208 16.7432C 6.87924 18.0113 8.0834 18.9999 9.49237 19.5841C 10.9014 20.1683 12.4519 20.3217 13.9481 20.0252C 15.4443 19.7286 16.819 18.9953 17.8985 17.9179L 21.2474 21.2713Z"/>
<path id="path7_fill" d="M 21.2527 17.5099C 19.0975 15.3559 16.227 14.0671 13.1849 13.8875C 10.1428 13.7079 7.14047 14.6501 4.74673 16.5355L 4.74673 0L -4.34197e-07 0L -4.34197e-07 15.4047L -4.34197e-07 26.752C 0.0638353 28.5612 0.521241 30.3348 1.34038 31.9493C 2.15952 33.5638 3.32072 34.9805 4.74318 36.1008L 4.74318 26.7271C 4.73607 26.5931 4.73251 26.458 4.73251 26.3217C 4.73251 26.1854 4.73607 26.0503 4.74318 25.9163C 4.80906 24.6234 5.20124 23.3683 5.88318 22.2678C 6.75051 20.8656 8.04434 19.7781 9.57501 19.1646C 11.1057 18.5511 12.7927 18.444 14.3887 18.859C 15.9847 19.2739 17.4057 20.1891 18.4435 21.4704C 19.4813 22.7516 20.0812 24.3316 20.1554 25.9785C 20.1554 26.0971 20.1554 26.2115 20.1554 26.3217C 20.1554 26.4319 20.1554 26.5463 20.1554 26.6649L 20.1554 38.7785L 24.9021 38.7785L 24.9021 26.3146C 24.9041 24.679 24.5827 23.0591 23.9564 21.5481C 23.3301 20.0371 22.4113 18.6647 21.2527 17.5099Z"/>
<path id="path8_fill" d="M 24.6727 10.0698L 5.10954 10.0698C 5.29972 9.48553 5.55947 8.92618 5.88318 8.40384C 6.49501 7.41453 7.32269 6.57633 8.30429 5.95194C 9.28589 5.32756 10.396 4.93316 11.5516 4.79824C 12.7072 4.66332 13.8783 4.79137 14.9774 5.17282C 16.0765 5.55427 17.0751 6.17925 17.8985 7.00099L 21.2474 3.64766C 19.532 1.93183 17.3524 0.75458 14.9767 0.26068C 12.601 -0.233221 10.1327 -0.0222431 7.87529 0.86767C 5.6179 1.75758 3.66987 3.28763 2.27072 5.26968C 0.871575 7.25172 0.0823173 9.59935 4.73879e-16 12.0239L 0 12.8933C 0.0218194 13.5501 0.0955594 14.204 0.22053 14.8491L 19.7837 14.8491C 19.3755 16.1035 18.6524 17.2322 17.6835 18.1276C 16.7147 19.023 15.5323 19.655 14.2495 19.9634C 12.9667 20.2717 11.6262 20.2461 10.3561 19.889C 9.08596 19.5318 7.92866 18.855 6.99472 17.9233L 4.73962 20.1814L 3.64586 21.2767C 5.38005 23.0108 7.58798 24.1941 9.9925 24.6781C 12.397 25.1621 14.891 24.9253 17.1613 23.9972C 19.4317 23.0692 21.3772 21.4914 22.7537 19.4618C 24.1302 17.4322 24.8764 15.0413 24.8986 12.5893L 24.8986 12.3315C 24.8922 11.5723 24.8166 10.8153 24.6727 10.0698ZM 12.4493 12.4702L 12.4208 12.4879L 12.4422 12.4666L 12.4546 12.479L 12.4493 12.4702Z"/>
<path id="path9_fill" d="M 2.3707 4.74018C 3.68 4.74018 4.7414 3.67906 4.7414 2.37009C 4.7414 1.06113 3.68 0 2.3707 0C 1.06139 0 3.47357e-06 1.06113 3.47357e-06 2.37009C 3.47357e-06 3.67906 1.06139 4.74018 2.3707 4.74018Z"/>
<path id="path10_fill" d="M 24.6709 10.0681L 5.10776 10.0681C 5.29794 9.4838 5.55769 8.92446 5.8814 8.40212C 6.49324 7.41281 7.32091 6.57461 8.30251 5.95022C 9.28411 5.32584 10.3942 4.93144 11.5498 4.79652C 12.7054 4.66159 13.8765 4.78965 14.9756 5.1711C 16.0747 5.55255 17.0733 6.17753 17.8967 6.99927L 21.2456 3.64594C 19.5301 1.93069 17.3507 0.753959 14.9753 0.260396C 12.5998 -0.233167 10.1319 -0.0220477 7.87489 0.867801C 5.61786 1.75765 3.67011 3.28744 2.27105 5.26912C 0.872003 7.2508 0.0826406 9.59799 0 12.0222L 0 12.8916C 0.0218194 13.5483 0.0955577 14.2023 0.220528 14.8474L 19.7837 14.8474C 19.3755 16.1018 18.6524 17.2305 17.6835 18.1259C 16.7147 19.0212 15.5323 19.6533 14.2495 19.9616C 12.9667 20.27 11.6262 20.2444 10.3561 19.8872C 9.08597 19.5301 7.92867 18.8533 6.99472 17.9216L 4.73962 20.1797L 3.64586 21.2749C 5.38005 23.0091 7.58798 24.1924 9.9925 24.6764C 12.397 25.1604 14.891 24.9235 17.1613 23.9955C 19.4317 23.0675 21.3772 21.4896 22.7537 19.4601C 24.1302 17.4305 24.8764 15.0396 24.8986 12.5876L 24.8986 12.3298C 24.8916 11.5705 24.8154 10.8135 24.6709 10.0681ZM 12.4493 12.4684L 12.4208 12.4862L 12.4422 12.4649L 12.4546 12.4773L 12.4493 12.4684Z"/>
</defs>
</svg>
