<?xml version="1.0" encoding="utf-8"?>
<!-- Generator: Adobe Illustrator 21.0.0, SVG Export Plug-In . SVG Version: 6.00 Build 0)  -->
<svg version="1.1" id="Capa_1" xmlns="http://www.w3.org/2000/svg" xmlns:xlink="http://www.w3.org/1999/xlink" x="0px" y="0px"
	 viewBox="0 0 600 600" style="enable-background:new 0 0 600 600;" xml:space="preserve">
<style type="text/css">
	.st0{fill:#FFFFFF;}
</style>
<g>
	<path class="st0" d="M551.6,55.7C520.2,20,478.5,0.5,434.1,0.5S348,20.1,316.6,55.8l-16.4,18.7l-16.7-19
		C252.2,19.8,210.3,0,165.9,0c-44.3,0-86,19.7-117.3,55.3C17.2,91-0.1,138.4,0,188.9c0,50.5,17.5,97.8,48.8,133.6l238.9,271.7
		c3.3,3.7,7.7,5.7,12.1,5.7c4.3,0,8.8-1.9,12.1-5.7l239.4-271.3c31.4-35.7,48.7-83.2,48.7-133.7C600.1,138.9,582.9,91.5,551.6,55.7z
		"/>
</g>
</svg>
