<?xml version="1.0" encoding="utf-8"?>
<!-- Generator: Adobe Illustrator 17.1.0, SVG Export Plug-In . SVG Version: 6.00 Build 0)  -->
<!DOCTYPE svg PUBLIC "-//W3C//DTD SVG 1.1//EN" "http://www.w3.org/Graphics/SVG/1.1/DTD/svg11.dtd">
<svg version="1.1" id="Capa_1" xmlns="http://www.w3.org/2000/svg" xmlns:xlink="http://www.w3.org/1999/xlink" x="0px" y="0px"
	 viewBox="0 67 612 658" enable-background="new 0 67 612 658" xml:space="preserve">
<g>
	<path fill="#FFFFFF" d="M562.6,128.1c-32-39.2-74.5-60.6-119.8-60.6S355,89,322.9,128.2l-16.7,20.5l-17-20.8
		c-32-39.2-74.7-60.9-120-60.9C124,67,81.5,88.6,49.6,127.6C17.5,166.8-0.1,218.8,0,274.2c0,55.4,17.8,107.3,49.8,146.5l243.7,298
		c3.4,4.1,7.9,6.3,12.3,6.3s9-2.1,12.3-6.2l244.2-297.5c32-39.2,49.7-91.2,49.7-146.6C612.1,219.3,594.6,167.3,562.6,128.1z"/>
</g>
</svg>
