<?xml version="1.0" encoding="utf-8"?>
<!-- Generator: Adobe Illustrator 17.1.0, SVG Export Plug-In . SVG Version: 6.00 Build 0)  -->
<!DOCTYPE svg PUBLIC "-//W3C//DTD SVG 1.1//EN" "http://www.w3.org/Graphics/SVG/1.1/DTD/svg11.dtd">
<svg version="1.1" id="Capa_1" xmlns="http://www.w3.org/2000/svg" xmlns:xlink="http://www.w3.org/1999/xlink" x="0px" y="0px"
	 viewBox="0 0 792 792" enable-background="new 0 0 792 792" xml:space="preserve">
<g>
	<path d="M356.1,792c-6.8,0-12.4-5.5-12.4-12.4s5.5-12.4,12.4-12.4H436c6.8,0,12.4,5.5,12.4,12.4S442.8,792,436,792H356.1z"/>
	<path d="M324.1,693.8c-6.8,0-12.4-5.5-12.4-12.4s5.5-12.4,12.4-12.4h143.9c6.8,0,12.4,5.5,12.4,12.4s-5.5,12.4-12.4,12.4H324.1z"/>
	<path d="M340.1,742.9c-6.8,0-12.4-5.5-12.4-12.4s5.6-12.4,12.4-12.4H452c6.8,0,12.4,5.5,12.4,12.4s-5.5,12.4-12.4,12.4H340.1z"/>
	<path d="M384.4,571.8c0,6.8-5.5,12.3-12.3,12.3s-12.3-5.5-12.3-12.3c-0.1-52.1-1.5-91-8.7-127.1c-7.1-35.6-19.9-68.7-42.5-109.4
		c-3.3-6-1.2-13.5,4.8-16.8c6-3.3,13.5-1.2,16.8,4.8c24,43.3,37.6,78.5,45.2,116.6C382.7,477.5,384.3,517.9,384.4,571.8z"/>
	<path d="M315.5,341.1c-6.5-2.1-10.1-9-8-15.5c2.1-6.5,9-10.1,15.5-8c8.6,2.8,16.1,6.5,22.9,10l0.7,0.4c10.8,5.4,19.7,9.6,26.3,4.2
		l15.2-12.4c5.3-4.3,13.1-3.5,17.4,1.8c4.3,5.3,3.5,13.1-1.8,17.4l-15.2,12.4c-18.9,15.4-34.4,7.9-53.1-1.4l-0.6-0.3
		C328.9,346.6,322.3,343.3,315.5,341.1z"/>
	<path d="M469,317.6c6.5-2.1,13.5,1.5,15.5,8c2.1,6.5-1.5,13.5-8,15.5c-6.8,2.2-13.3,5.5-19.4,8.5l-0.6,0.3
		c-18.6,9.4-34.2,16.9-53.1,1.4l-15.2-12.4c-5.3-4.3-6.1-12.1-1.8-17.4c4.3-5.3,12.1-6.1,17.4-1.8l15.2,12.4
		c6.7,5.4,15.6,1.2,26.3-4.2l0.7-0.4C452.9,324.1,460.4,320.4,469,317.6z"/>
	<path d="M432.3,571.8c0,6.8-5.5,12.3-12.3,12.3s-12.3-5.5-12.3-12.3c0.1-53.9,1.6-94.3,9.1-131.9c7.6-38.1,21.2-73.3,45.2-116.6
		c3.3-6,10.8-8.1,16.8-4.8c6,3.3,8.1,10.8,4.8,16.8c-22.6,40.7-35.3,73.8-42.5,109.4C433.9,480.8,432.3,519.7,432.3,571.8z"/>
	<path d="M551.7,192.4c39.8,39.8,64.5,94.9,64.5,155.7c0,23.8-3.8,46.7-10.8,68.3c-7.2,22.2-18,43-31.5,61.5
		c-22.7,31.1-41.1,51.5-55.5,67.3c-25.8,28.5-37,41-37,82.6c0,6.8-5.5,12.4-12.4,12.4h-0.3h-72.1h-72.4c-6.8,0-12.4-5.5-12.4-12.4
		c0-41.3-11.5-53.9-37.1-81.9l0,0l0,0c-14.5-15.8-33.1-36.2-56.4-68.1c-13.5-18.5-24.3-39.3-31.5-61.5c-7-21.5-10.8-44.5-10.8-68.2
		c0-29.8,6-58.2,16.7-84.2l0.2-0.5c11.2-26.8,27.5-50.9,47.6-71c20.2-20.2,44.5-36.6,71.5-47.7v0c26-10.8,54.5-16.7,84.2-16.7
		c29.7,0,58.1,6,84.2,16.7C507.2,155.8,531.5,172.1,551.7,192.4L551.7,192.4z M591.4,348c0-54-21.9-102.8-57.2-138.2
		c-18.1-18.1-39.6-32.6-63.4-42.5c-22.9-9.5-48.2-14.8-74.8-14.8c-26.5,0-51.8,5.3-74.7,14.8v0l-0.1,0
		c-23.8,9.8-45.3,24.4-63.4,42.5c-17.9,17.9-32.4,39.2-42.2,62.8l-0.3,0.7c-9.5,22.9-14.8,48.2-14.8,74.7c0,21.2,3.4,41.6,9.6,60.6
		c6.5,19.8,16,38.2,27.9,54.6c22.4,30.6,40.6,50.5,54.7,66l0,0c27.5,30.1,41.2,45.1,43.4,86.1h60.4h60.4
		c2.1-41.3,15.5-56.2,43.2-86.8c13.8-15.3,31.6-35,53.8-65.4c12-16.4,21.5-34.8,27.9-54.6C588.1,389.7,591.4,369.3,591.4,348z"/>
	<path d="M267.4,288.3c-2.6,6.3-9.9,9.2-16.1,6.6c-6.3-2.6-9.2-9.9-6.6-16.1c4.1-9.8,9.2-19.1,15-27.8l0,0l0,0
		c6-8.8,12.7-17,20.1-24.4c7.3-7.3,15.5-14.1,24.4-20.1v0c8.6-5.8,17.9-10.9,27.8-15c9.9-4.2,20.4-7.5,31.2-9.6
		c10.7-2.2,21.7-3.3,32.6-3.3c6.8,0,12.4,5.5,12.4,12.4s-5.5,12.4-12.4,12.4c-9.7,0-19,1-27.8,2.7c-9.2,1.8-18.1,4.6-26.5,8.2
		c-8.2,3.5-16.1,7.8-23.6,12.8l0,0h0c-7.3,4.9-14.3,10.7-20.7,17.1c-6.4,6.4-12.1,13.4-17.1,20.8l0,0
		C275.2,272.2,270.9,280.1,267.4,288.3z"/>
</g>
</svg>
